<mxfile host="app.diagrams.net" modified="2024-03-16T07:43:40.862Z" agent="Mozilla/5.0 (Windows NT 10.0; Win64; x64; rv:123.0) Gecko/20100101 Firefox/123.0" etag="05IyeZ_k3VU67d9cDMnu" version="24.0.7" type="device">
  <diagram name="Page-1" id="pI1vHCJ03lOPNWT9C_CK">
    <mxGraphModel dx="1167" dy="620" grid="1" gridSize="10" guides="1" tooltips="1" connect="1" arrows="1" fold="1" page="1" pageScale="1" pageWidth="850" pageHeight="1100" math="0" shadow="0">
      <root>
        <mxCell id="0" />
        <mxCell id="1" parent="0" />
        <mxCell id="ZNIAc6-CXzKaRSeNN6Ip-1" value="&lt;font style=&quot;font-size: 20px;&quot;&gt;Player&lt;/font&gt;" style="shape=umlActor;verticalLabelPosition=bottom;verticalAlign=top;html=1;outlineConnect=0;" parent="1" vertex="1">
          <mxGeometry x="140" y="180" width="60" height="100" as="geometry" />
        </mxCell>
        <mxCell id="ZNIAc6-CXzKaRSeNN6Ip-4" value="" style="endArrow=classic;html=1;rounded=0;entryX=0;entryY=1;entryDx=0;entryDy=0;" parent="1" target="ZNIAc6-CXzKaRSeNN6Ip-5" edge="1">
          <mxGeometry width="50" height="50" relative="1" as="geometry">
            <mxPoint x="200" y="190" as="sourcePoint" />
            <mxPoint x="250" y="140" as="targetPoint" />
          </mxGeometry>
        </mxCell>
        <mxCell id="ZNIAc6-CXzKaRSeNN6Ip-5" value="&lt;b&gt;START GAME&amp;nbsp;&lt;/b&gt;" style="rounded=1;whiteSpace=wrap;html=1;" parent="1" vertex="1">
          <mxGeometry x="260" y="110" width="120" height="60" as="geometry" />
        </mxCell>
        <mxCell id="ZNIAc6-CXzKaRSeNN6Ip-6" value="" style="endArrow=classic;html=1;rounded=0;" parent="1" edge="1" source="ZNIAc6-CXzKaRSeNN6Ip-1">
          <mxGeometry width="50" height="50" relative="1" as="geometry">
            <mxPoint x="210" y="280" as="sourcePoint" />
            <mxPoint x="260" y="310" as="targetPoint" />
          </mxGeometry>
        </mxCell>
        <mxCell id="ZNIAc6-CXzKaRSeNN6Ip-7" value="&lt;b&gt;EXIT&lt;/b&gt;" style="rounded=1;whiteSpace=wrap;html=1;" parent="1" vertex="1">
          <mxGeometry x="260" y="280" width="120" height="60" as="geometry" />
        </mxCell>
        <mxCell id="ZNIAc6-CXzKaRSeNN6Ip-8" value="&lt;b&gt;PLAY&amp;nbsp;&lt;/b&gt;&lt;div&gt;&lt;b&gt;GAME&amp;nbsp;&lt;/b&gt;&lt;/div&gt;" style="rounded=1;whiteSpace=wrap;html=1;" parent="1" vertex="1">
          <mxGeometry x="380" y="200" width="120" height="60" as="geometry" />
        </mxCell>
        <mxCell id="ZNIAc6-CXzKaRSeNN6Ip-9" value="" style="endArrow=classic;html=1;rounded=0;entryX=0.023;entryY=0.647;entryDx=0;entryDy=0;entryPerimeter=0;" parent="1" target="ZNIAc6-CXzKaRSeNN6Ip-8" edge="1">
          <mxGeometry width="50" height="50" relative="1" as="geometry">
            <mxPoint x="200" y="240" as="sourcePoint" />
            <mxPoint x="280" y="190" as="targetPoint" />
            <Array as="points">
              <mxPoint x="290" y="240" />
            </Array>
          </mxGeometry>
        </mxCell>
        <mxCell id="ZNIAc6-CXzKaRSeNN6Ip-10" value="" style="endArrow=classic;html=1;rounded=0;exitX=1;exitY=0.75;exitDx=0;exitDy=0;entryX=0.25;entryY=0;entryDx=0;entryDy=0;" parent="1" source="ZNIAc6-CXzKaRSeNN6Ip-5" target="ZNIAc6-CXzKaRSeNN6Ip-8" edge="1">
          <mxGeometry width="50" height="50" relative="1" as="geometry">
            <mxPoint x="440" y="140" as="sourcePoint" />
            <mxPoint x="490" y="90" as="targetPoint" />
          </mxGeometry>
        </mxCell>
        <mxCell id="ZNIAc6-CXzKaRSeNN6Ip-11" value="&lt;b&gt;GUESSWORD&lt;/b&gt;" style="rounded=1;whiteSpace=wrap;html=1;" parent="1" vertex="1">
          <mxGeometry x="580" y="200" width="120" height="60" as="geometry" />
        </mxCell>
        <mxCell id="ragUZH2FdJ99AxLlAy6U-26" value="" style="edgeStyle=orthogonalEdgeStyle;rounded=0;orthogonalLoop=1;jettySize=auto;html=1;" edge="1" parent="1" source="ZNIAc6-CXzKaRSeNN6Ip-12" target="ragUZH2FdJ99AxLlAy6U-25">
          <mxGeometry relative="1" as="geometry" />
        </mxCell>
        <mxCell id="ZNIAc6-CXzKaRSeNN6Ip-12" value="&lt;b&gt;Wrong Guess&lt;br&gt;&lt;/b&gt;" style="rounded=1;whiteSpace=wrap;html=1;" parent="1" vertex="1">
          <mxGeometry x="700" y="270" width="120" height="60" as="geometry" />
        </mxCell>
        <mxCell id="ragUZH2FdJ99AxLlAy6U-3" value="" style="edgeStyle=orthogonalEdgeStyle;rounded=0;orthogonalLoop=1;jettySize=auto;html=1;" edge="1" parent="1" source="ZNIAc6-CXzKaRSeNN6Ip-13" target="ragUZH2FdJ99AxLlAy6U-1">
          <mxGeometry relative="1" as="geometry" />
        </mxCell>
        <mxCell id="ZNIAc6-CXzKaRSeNN6Ip-13" value="&lt;b&gt;Correct Guess&lt;br&gt;&lt;/b&gt;" style="rounded=1;whiteSpace=wrap;html=1;" parent="1" vertex="1">
          <mxGeometry x="780" y="110" width="120" height="60" as="geometry" />
        </mxCell>
        <mxCell id="ZNIAc6-CXzKaRSeNN6Ip-14" value="&lt;b&gt;PLAY AGAIN&amp;nbsp;&lt;/b&gt;" style="rounded=1;whiteSpace=wrap;html=1;" parent="1" vertex="1">
          <mxGeometry x="1410" y="190" width="120" height="60" as="geometry" />
        </mxCell>
        <mxCell id="ZNIAc6-CXzKaRSeNN6Ip-15" value="" style="endArrow=classic;html=1;rounded=0;exitX=1;exitY=0.5;exitDx=0;exitDy=0;entryX=0;entryY=0.5;entryDx=0;entryDy=0;" parent="1" source="ZNIAc6-CXzKaRSeNN6Ip-8" target="ZNIAc6-CXzKaRSeNN6Ip-11" edge="1">
          <mxGeometry width="50" height="50" relative="1" as="geometry">
            <mxPoint x="510" y="320" as="sourcePoint" />
            <mxPoint x="560" y="270" as="targetPoint" />
          </mxGeometry>
        </mxCell>
        <mxCell id="ZNIAc6-CXzKaRSeNN6Ip-16" value="" style="endArrow=none;html=1;rounded=0;exitX=0.5;exitY=0;exitDx=0;exitDy=0;" parent="1" source="ZNIAc6-CXzKaRSeNN6Ip-11" edge="1">
          <mxGeometry width="50" height="50" relative="1" as="geometry">
            <mxPoint x="530" y="190" as="sourcePoint" />
            <mxPoint x="640" y="140" as="targetPoint" />
          </mxGeometry>
        </mxCell>
        <mxCell id="ZNIAc6-CXzKaRSeNN6Ip-18" value="" style="endArrow=classic;html=1;rounded=0;entryX=0;entryY=0.5;entryDx=0;entryDy=0;" parent="1" target="ZNIAc6-CXzKaRSeNN6Ip-13" edge="1">
          <mxGeometry width="50" height="50" relative="1" as="geometry">
            <mxPoint x="640" y="140" as="sourcePoint" />
            <mxPoint x="670" y="80" as="targetPoint" />
          </mxGeometry>
        </mxCell>
        <mxCell id="ZNIAc6-CXzKaRSeNN6Ip-19" value="" style="endArrow=none;html=1;rounded=0;exitX=0.5;exitY=1;exitDx=0;exitDy=0;" parent="1" source="ZNIAc6-CXzKaRSeNN6Ip-11" edge="1">
          <mxGeometry width="50" height="50" relative="1" as="geometry">
            <mxPoint x="580" y="250" as="sourcePoint" />
            <mxPoint x="640" y="300" as="targetPoint" />
          </mxGeometry>
        </mxCell>
        <mxCell id="ZNIAc6-CXzKaRSeNN6Ip-20" value="" style="endArrow=classic;html=1;rounded=0;entryX=0;entryY=0.5;entryDx=0;entryDy=0;" parent="1" target="ZNIAc6-CXzKaRSeNN6Ip-12" edge="1">
          <mxGeometry width="50" height="50" relative="1" as="geometry">
            <mxPoint x="640" y="300" as="sourcePoint" />
            <mxPoint x="710" y="300" as="targetPoint" />
          </mxGeometry>
        </mxCell>
        <mxCell id="Z4oJSy2oUO1WAj8VoQBh-1" value="" style="endArrow=classic;html=1;rounded=0;" parent="1" edge="1">
          <mxGeometry width="50" height="50" relative="1" as="geometry">
            <mxPoint x="1040" y="140" as="sourcePoint" />
            <mxPoint x="1040" y="140" as="targetPoint" />
          </mxGeometry>
        </mxCell>
        <mxCell id="Z4oJSy2oUO1WAj8VoQBh-2" value="" style="endArrow=classic;html=1;rounded=0;" parent="1" edge="1">
          <mxGeometry width="50" height="50" relative="1" as="geometry">
            <mxPoint x="1050" y="300" as="sourcePoint" />
            <mxPoint x="1050" y="300" as="targetPoint" />
          </mxGeometry>
        </mxCell>
        <mxCell id="ragUZH2FdJ99AxLlAy6U-9" value="" style="edgeStyle=orthogonalEdgeStyle;rounded=0;orthogonalLoop=1;jettySize=auto;html=1;" edge="1" parent="1" source="ragUZH2FdJ99AxLlAy6U-1">
          <mxGeometry relative="1" as="geometry">
            <mxPoint x="1210" y="140" as="targetPoint" />
          </mxGeometry>
        </mxCell>
        <mxCell id="ragUZH2FdJ99AxLlAy6U-12" value="&lt;font style=&quot;font-size: 20px;&quot;&gt;Yes&lt;/font&gt;" style="edgeLabel;html=1;align=center;verticalAlign=middle;resizable=0;points=[];" vertex="1" connectable="0" parent="ragUZH2FdJ99AxLlAy6U-9">
          <mxGeometry x="-0.5021" y="2" relative="1" as="geometry">
            <mxPoint x="17" as="offset" />
          </mxGeometry>
        </mxCell>
        <mxCell id="ragUZH2FdJ99AxLlAy6U-18" value="&lt;font style=&quot;font-size: 20px;&quot;&gt;No&lt;/font&gt;" style="edgeStyle=orthogonalEdgeStyle;rounded=0;orthogonalLoop=1;jettySize=auto;html=1;entryX=0.25;entryY=0;entryDx=0;entryDy=0;" edge="1" parent="1" source="ragUZH2FdJ99AxLlAy6U-1" target="ZNIAc6-CXzKaRSeNN6Ip-11">
          <mxGeometry x="-0.1636" relative="1" as="geometry">
            <mxPoint x="960" y="10" as="targetPoint" />
            <Array as="points">
              <mxPoint x="1080" y="50" />
              <mxPoint x="610" y="50" />
            </Array>
            <mxPoint as="offset" />
          </mxGeometry>
        </mxCell>
        <mxCell id="ragUZH2FdJ99AxLlAy6U-1" value="Word completed" style="rhombus;whiteSpace=wrap;html=1;" vertex="1" parent="1">
          <mxGeometry x="1040" y="100" width="80" height="80" as="geometry" />
        </mxCell>
        <mxCell id="ragUZH2FdJ99AxLlAy6U-7" value="" style="edgeStyle=orthogonalEdgeStyle;rounded=0;orthogonalLoop=1;jettySize=auto;html=1;entryX=0;entryY=0.5;entryDx=0;entryDy=0;" edge="1" parent="1" source="ragUZH2FdJ99AxLlAy6U-4" target="ragUZH2FdJ99AxLlAy6U-14">
          <mxGeometry relative="1" as="geometry">
            <mxPoint x="1240" y="300" as="targetPoint" />
          </mxGeometry>
        </mxCell>
        <mxCell id="ragUZH2FdJ99AxLlAy6U-11" value="&lt;font style=&quot;font-size: 20px;&quot;&gt;Yes&lt;/font&gt;" style="edgeLabel;html=1;align=center;verticalAlign=middle;resizable=0;points=[];" vertex="1" connectable="0" parent="ragUZH2FdJ99AxLlAy6U-7">
          <mxGeometry x="-0.5037" y="-2" relative="1" as="geometry">
            <mxPoint x="18" y="-2" as="offset" />
          </mxGeometry>
        </mxCell>
        <mxCell id="ragUZH2FdJ99AxLlAy6U-20" value="" style="edgeStyle=orthogonalEdgeStyle;rounded=0;orthogonalLoop=1;jettySize=auto;html=1;entryX=0.25;entryY=1;entryDx=0;entryDy=0;" edge="1" parent="1" source="ragUZH2FdJ99AxLlAy6U-4" target="ZNIAc6-CXzKaRSeNN6Ip-11">
          <mxGeometry relative="1" as="geometry">
            <mxPoint x="840" y="400" as="targetPoint" />
            <Array as="points">
              <mxPoint x="1080" y="400" />
              <mxPoint x="610" y="400" />
            </Array>
          </mxGeometry>
        </mxCell>
        <mxCell id="ragUZH2FdJ99AxLlAy6U-24" value="&lt;font style=&quot;font-size: 20px;&quot;&gt;No&lt;/font&gt;" style="edgeLabel;html=1;align=center;verticalAlign=middle;resizable=0;points=[];" vertex="1" connectable="0" parent="ragUZH2FdJ99AxLlAy6U-20">
          <mxGeometry x="-0.4667" y="-1" relative="1" as="geometry">
            <mxPoint x="-93" as="offset" />
          </mxGeometry>
        </mxCell>
        <mxCell id="ragUZH2FdJ99AxLlAy6U-4" value="All lives lost" style="rhombus;whiteSpace=wrap;html=1;rounded=1;" vertex="1" parent="1">
          <mxGeometry x="1040" y="260" width="80" height="80" as="geometry" />
        </mxCell>
        <mxCell id="ragUZH2FdJ99AxLlAy6U-13" value="Player wins" style="rounded=1;whiteSpace=wrap;html=1;" vertex="1" parent="1">
          <mxGeometry x="1210" y="110" width="120" height="60" as="geometry" />
        </mxCell>
        <mxCell id="ragUZH2FdJ99AxLlAy6U-14" value="Player loses" style="rounded=1;whiteSpace=wrap;html=1;" vertex="1" parent="1">
          <mxGeometry x="1210" y="270" width="120" height="60" as="geometry" />
        </mxCell>
        <mxCell id="ragUZH2FdJ99AxLlAy6U-15" value="" style="endArrow=classic;html=1;rounded=0;entryX=0;entryY=0.5;entryDx=0;entryDy=0;" edge="1" parent="1" source="ragUZH2FdJ99AxLlAy6U-13" target="ZNIAc6-CXzKaRSeNN6Ip-14">
          <mxGeometry width="50" height="50" relative="1" as="geometry">
            <mxPoint x="1330" y="190" as="sourcePoint" />
            <mxPoint x="1400.7106781186549" y="140" as="targetPoint" />
            <Array as="points">
              <mxPoint x="1380" y="140" />
              <mxPoint x="1380" y="220" />
            </Array>
          </mxGeometry>
        </mxCell>
        <mxCell id="ragUZH2FdJ99AxLlAy6U-16" value="" style="endArrow=classic;html=1;rounded=0;entryX=0;entryY=0.5;entryDx=0;entryDy=0;" edge="1" parent="1" source="ragUZH2FdJ99AxLlAy6U-14" target="ZNIAc6-CXzKaRSeNN6Ip-14">
          <mxGeometry width="50" height="50" relative="1" as="geometry">
            <mxPoint x="1330" y="350" as="sourcePoint" />
            <mxPoint x="1400.7106781186549" y="300" as="targetPoint" />
            <Array as="points">
              <mxPoint x="1380" y="300" />
              <mxPoint x="1380" y="220" />
            </Array>
          </mxGeometry>
        </mxCell>
        <mxCell id="ragUZH2FdJ99AxLlAy6U-23" value="" style="edgeStyle=orthogonalEdgeStyle;rounded=0;orthogonalLoop=1;jettySize=auto;html=1;entryX=0.25;entryY=1;entryDx=0;entryDy=0;" edge="1" parent="1" target="ZNIAc6-CXzKaRSeNN6Ip-11">
          <mxGeometry relative="1" as="geometry">
            <mxPoint x="720" y="400" as="sourcePoint" />
            <mxPoint x="580" y="400" as="targetPoint" />
          </mxGeometry>
        </mxCell>
        <mxCell id="ragUZH2FdJ99AxLlAy6U-27" value="" style="edgeStyle=orthogonalEdgeStyle;rounded=0;orthogonalLoop=1;jettySize=auto;html=1;" edge="1" parent="1" source="ragUZH2FdJ99AxLlAy6U-25" target="ragUZH2FdJ99AxLlAy6U-4">
          <mxGeometry relative="1" as="geometry" />
        </mxCell>
        <mxCell id="ragUZH2FdJ99AxLlAy6U-25" value="&lt;div&gt;Hangman is drawn&lt;/div&gt;" style="whiteSpace=wrap;html=1;rounded=1;" vertex="1" parent="1">
          <mxGeometry x="870" y="270" width="120" height="60" as="geometry" />
        </mxCell>
      </root>
    </mxGraphModel>
  </diagram>
</mxfile>
